<?xml version="1.0"?>
<svg version="1.1" xmlns="http://www.w3.org/2000/svg" width="300" height="50" style=""><path fill="#07fffd" d="M16.04248046875,20.12939453125q0-0.205078125,0.196533203125-0.3076171875t0.42724609375-0.15380859375t0.418701171875-0.05126953125l0.18798828125,0q0.59814453125,0,0.863037109375,0.2734375t0.640869140625,0.70068359375q2.5634765625,3.70849609375,4.69970703125,7.630615234375t4.11865234375,7.938232421875q0.1708984375-4.6826171875,0.350341796875-9.425048828125t0.452880859375-9.407958984375q0-0.205078125,0.196533203125-0.341796875t0.4443359375-0.205078125t0.504150390625-0.08544921875t0.39306640625-0.01708984375q0.205078125,0,0.452880859375,0.01708984375t0.49560546875,0.1025390625t0.41015625,0.205078125t0.162353515625,0.32470703125q0.068359375,0.73486328125,0.076904296875,1.478271484375t0.008544921875,1.478271484375q0,5.5029296875-0.2392578125,10.78369140625t-0.2392578125,10.6640625l0,1.23046875q0,0.068359375-0.068359375,0.205078125q0.0341796875,0.13671875,0.1025390625,0.299072265625t0.068359375,0.230712890625q0,0.2734375-0.281982421875,0.41015625t-0.615234375,0.213623046875t-0.589599609375,0.076904296875t-0.18798828125,0q-0.87158203125,0-1.4697265625-0.478515625t-0.59814453125-1.14501953125q-1.2646484375-2.8369140625-2.520751953125-5.631103515625t-2.623291015625-5.562744140625q-0.87158203125-1.7431640625-1.751708984375-3.494873046875t-1.888427734375-3.392333984375q0.0341796875,0.0341796875,0.0341796875,0.1025390625q0.1708984375,1.708984375,0.367431640625,3.409423828125t0.299072265625,3.409423828125q0.068359375,1.4697265625,0.15380859375,2.9736328125t0.2734375,2.9736328125q0,0.56396484375-0.350341796875,0.7177734375t-0.811767578125,0.15380859375q-0.39306640625,0-0.743408203125-0.1025390625t-0.418701171875-0.5126953125q0-1.572265625-0.11962890625-3.341064453125t-0.22216796875-3.563232421875q-0.1708984375-2.37548828125-0.452880859375-4.827880859375t-0.281982421875-4.793701171875q0-0.1025390625,0.01708984375-0.213623046875t0.01708984375-0.247802734375q-0.1025390625-0.1708984375-0.230712890625-0.35888671875t-0.128173828125-0.341796875z M34.681860351562,36.4501953125q0-0.97412109375,0.247802734375-2.008056640625t0.7861328125-1.86279296875t1.358642578125-1.35009765625t1.982421875-0.521240234375q0.87158203125,0,1.837158203125,0.299072265625t1.768798828125,0.8544921875t1.307373046875,1.358642578125t0.504150390625,1.79443359375q0,1.1962890625-0.435791015625,2.27294921875t-1.221923828125,1.922607421875t-1.837158203125,1.3330078125t-2.281494140625,0.487060546875q-1.00830078125,0-1.76025390625-0.367431640625t-1.256103515625-0.982666015625t-0.751953125-1.45263671875t-0.247802734375-1.77734375z M37.194067382812,36.416015625q0,0.3076171875,0.093994140625,0.90576171875t0.281982421875,1.170654296875t0.487060546875,0.9912109375t0.726318359375,0.384521484375q0.90576171875-0.1025390625,1.495361328125-0.589599609375t0.95703125-1.187744140625t0.5126953125-1.52099609375t0.145263671875-1.55517578125q0-0.93994140625-0.367431640625-1.572265625t-1.204833984375-1.025390625q0,0.0341796875,0.0341796875,0.0341796875t0.0341796875-0.0341796875l-0.42724609375-0.1025390625q-0.1708984375-0.068359375-0.418701171875-0.15380859375t-0.487060546875-0.3759765625q-0.66650390625,0.2392578125-1.033935546875,0.615234375t-0.555419921875,0.914306640625t-0.230712890625,1.290283203125t-0.042724609375,1.8115234375z M47.288525390625,36.4501953125q0-0.97412109375,0.247802734375-2.008056640625t0.7861328125-1.86279296875t1.358642578125-1.35009765625t1.982421875-0.521240234375q0.87158203125,0,1.837158203125,0.299072265625t1.768798828125,0.8544921875t1.307373046875,1.358642578125t0.504150390625,1.79443359375q0,1.1962890625-0.435791015625,2.27294921875t-1.221923828125,1.922607421875t-1.837158203125,1.3330078125t-2.281494140625,0.487060546875q-1.00830078125,0-1.76025390625-0.367431640625t-1.256103515625-0.982666015625t-0.751953125-1.45263671875t-0.247802734375-1.77734375z M49.800732421875,36.416015625q0,0.3076171875,0.093994140625,0.90576171875t0.281982421875,1.170654296875t0.487060546875,0.9912109375t0.726318359375,0.384521484375q0.90576171875-0.1025390625,1.495361328125-0.589599609375t0.95703125-1.187744140625t0.5126953125-1.52099609375t0.145263671875-1.55517578125q0-0.93994140625-0.367431640625-1.572265625t-1.204833984375-1.025390625q0,0.0341796875,0.0341796875,0.0341796875t0.0341796875-0.0341796875l-0.42724609375-0.1025390625q-0.1708984375-0.068359375-0.418701171875-0.15380859375t-0.487060546875-0.3759765625q-0.66650390625,0.2392578125-1.033935546875,0.615234375t-0.555419921875,0.914306640625t-0.230712890625,1.290283203125t-0.042724609375,1.8115234375z M60.236987304687,31.15234375q0-1.1962890625,0.111083984375-3.1103515625t0.264892578125-3.94775390625t0.384521484375-3.853759765625t0.504150390625-2.794189453125q0.1025390625-0.42724609375,0.487060546875-0.5126953125t0.777587890625-0.08544921875q0.52978515625,0,0.914306640625,0.18798828125t0.384521484375,0.8203125q0,3.1103515625-0.384521484375,6.229248046875t-0.418701171875,6.229248046875q0.52978515625-0.80322265625,1.3671875-1.204833984375t1.77734375-0.401611328125q1.298828125,0,2.23876953125,0.52978515625t1.52099609375,1.3671875t0.863037109375,1.939697265625t0.281982421875,2.247314453125q0,0.63232421875-0.128173828125,1.580810546875t-0.384521484375,1.99951171875t-0.6494140625,2.0849609375t-0.931396484375,1.854248046875t-1.239013671875,1.324462890625t-1.5380859375,0.504150390625q-0.1708984375,0-0.452880859375-0.05126953125t-0.56396484375-0.15380859375t-0.469970703125-0.264892578125t-0.18798828125-0.401611328125q0-0.2734375,0.333251953125-0.384521484375t0.538330078125-0.111083984375q0.76904296875-0.341796875,1.3671875-1.427001953125t0.999755859375-2.384033203125t0.606689453125-2.572021484375t0.205078125-2.076416015625q0-0.46142578125-0.13671875-1.23046875t-0.418701171875-1.52099609375t-0.76904296875-1.298828125t-1.153564453125-0.546875q-0.80322265625,0-1.28173828125,0.828857421875t-0.751953125,1.93115234375t-0.367431640625,2.27294921875t-0.093994140625,1.837158203125q0,0.42724609375,0.145263671875,0.845947265625t0.333251953125,0.83740234375t0.333251953125,0.8544921875t0.145263671875,0.863037109375q0,0.205078125-0.179443359375,0.341796875t-0.418701171875,0.22216796875t-0.504150390625,0.111083984375t-0.401611328125,0.025634765625q-0.97412109375,0-1.35009765625-0.46142578125t-0.6494140625-1.298828125q-0.59814453125-1.89697265625-0.828857421875-3.853759765625t-0.230712890625-3.922119140625z M81.468383789062,18.72802734375q0-1.1962890625,0.41015625-1.6064453125t1.14501953125-0.41015625q0.205078125,0,0.435791015625,0.0341796875t0.435791015625,0.1025390625q1.14501953125-0.22216796875,2.17041015625-0.22216796875q1.65771484375,0,3.0078125,0.5810546875q2.17041015625,0.9228515625,3.5888671875,2.734375t2.0849609375,4.25537109375t0.66650390625,5.00732421875q0,1.435546875-0.196533203125,2.99072265625t-0.760498046875,2.88818359375q-0.49560546875,1.1962890625-1.3671875,2.503662109375t-1.973876953125,2.47802734375t-2.37548828125,2.05078125t-2.572021484375,1.187744140625l0,0.13671875q0,0.341796875-0.179443359375,0.555419921875t-0.435791015625,0.32470703125t-0.589599609375,0.145263671875t-0.623779296875,0.0341796875q-0.1708984375,0-0.487060546875-0.0341796875t-0.615234375-0.128173828125t-0.504150390625-0.247802734375t-0.205078125-0.42724609375q0-3.1103515625-0.162353515625-6.229248046875t-0.367431640625-6.23779296875t-0.367431640625-6.229248046875t-0.162353515625-6.23779296875z M84.698364257812,17.8564453125q0.1708984375,1.640625,0.22216796875,3.272705078125t0.15380859375,3.272705078125q0.2734375,4.23828125,0.63232421875,8.433837890625t0.42724609375,8.433837890625q1.640625-1.07666015625,2.811279296875-2.4609375t1.922607421875-3.0078125t1.102294921875-3.409423828125t0.350341796875-3.682861328125q0-1.3671875-0.2392578125-3.0078125t-0.8203125-3.16162109375t-1.563720703125-2.75146484375t-2.452392578125-1.76025390625q-0.3076171875-0.1025390625-0.743408203125-0.1708984375t-1.392822265625-0.068359375q-0.1025390625,0-0.205078125,0.0341796875t-0.205078125,0.0341796875z M98.894384765625,36.826171875q0-1.1962890625,0.264892578125-2.81982421875t0.897216796875-3.076171875t1.666259765625-2.469482421875t2.606201171875-1.016845703125q1.4697265625,0,2.20458984375,0.845947265625t0.73486328125,2.281494140625q0,0.93994140625-0.350341796875,2.059326171875t-0.999755859375,2.119140625t-1.5380859375,1.666259765625t-1.982421875,0.66650390625l-0.4443359375-0.0341796875q0,0.46142578125,0.13671875,1.239013671875t0.401611328125,1.546630859375t0.68359375,1.35009765625t1.016845703125,0.5810546875q0.87158203125,0,1.6748046875-0.70068359375t1.52099609375-1.55517578125t1.3330078125-1.55517578125t1.1279296875-0.70068359375q0.2734375,0,0.56396484375,0.08544921875t0.32470703125,0.478515625q0,0.2392578125-0.128173828125,0.39306640625t-0.230712890625,0.341796875q-0.52978515625,0.90576171875-1.153564453125,1.72607421875t-1.409912109375,1.48681640625t-1.717529296875,1.051025390625t-2.059326171875,0.384521484375q-1.4697265625,0-2.44384765625-0.521240234375t-1.572265625-1.4013671875t-0.863037109375-2.03369140625t-0.264892578125-2.418212890625z M101.95346679688,35.52734375l0.478515625,0.42724609375q0.341796875,0.3076171875,0.68359375,0.13671875t0.615234375-0.623779296875t0.504150390625-1.119384765625t0.41015625-1.3671875t0.264892578125-1.3671875t0.08544921875-1.11083984375l0-0.5810546875t-0.05126953125-0.615234375t-0.179443359375-0.487060546875t-0.401611328125-0.247802734375q-0.08544921875-0.01708984375-0.15380859375-0.01708984375q-0.5810546875,0-0.9912109375,0.73486328125q-0.4443359375,0.8203125-0.7177734375,1.990966796875t-0.39306640625,2.401123046875t-0.15380859375,1.845703125z M112.47517089844,29.76806640625q0-0.13671875,0.162353515625-0.247802734375t0.367431640625-0.162353515625t0.418701171875-0.068359375t0.316162109375-0.01708984375q0.76904296875,0,1.31591796875,0.68359375t0.948486328125,1.751708984375t0.68359375,2.3583984375t0.538330078125,2.572021484375t0.504150390625,2.349853515625t0.555419921875,1.649169921875q0.52978515625-1.04248046875,0.965576171875-2.51220703125t0.80322265625-3.0419921875t0.6494140625-3.101806640625t0.452880859375-2.674560546875q0.068359375-0.3076171875,0.42724609375-0.384521484375t0.59814453125-0.076904296875q0.39306640625,0,0.68359375,0.111083984375t0.29052734375,0.487060546875q0,0.63232421875-0.15380859375,1.717529296875t-0.418701171875,2.435302734375t-0.615234375,2.7685546875t-0.751953125,2.691650390625t-0.83740234375,2.255859375t-0.863037109375,1.392822265625q-0.205078125,0.2392578125-0.640869140625,0.333251953125t-0.726318359375,0.093994140625q-1.00830078125,0-1.6748046875-0.52978515625l0,0.0341796875q-1.04248046875-0.97412109375-1.5380859375-2.37548828125t-0.7177734375-2.92236328125t-0.401611328125-3.02490234375t-0.606689453125-2.734375q-0.068359375-0.13671875-0.1708984375-0.401611328125t-0.2392578125-0.52978515625t-0.230712890625-0.504150390625t-0.093994140625-0.3759765625z M125.95341796875,36.826171875q0-1.1962890625,0.264892578125-2.81982421875t0.897216796875-3.076171875t1.666259765625-2.469482421875t2.606201171875-1.016845703125q1.4697265625,0,2.20458984375,0.845947265625t0.73486328125,2.281494140625q0,0.93994140625-0.350341796875,2.059326171875t-0.999755859375,2.119140625t-1.5380859375,1.666259765625t-1.982421875,0.66650390625l-0.4443359375-0.0341796875q0,0.46142578125,0.13671875,1.239013671875t0.401611328125,1.546630859375t0.68359375,1.35009765625t1.016845703125,0.5810546875q0.87158203125,0,1.6748046875-0.70068359375t1.52099609375-1.55517578125t1.3330078125-1.55517578125t1.1279296875-0.70068359375q0.2734375,0,0.56396484375,0.08544921875t0.32470703125,0.478515625q0,0.2392578125-0.128173828125,0.39306640625t-0.230712890625,0.341796875q-0.52978515625,0.90576171875-1.153564453125,1.72607421875t-1.409912109375,1.48681640625t-1.717529296875,1.051025390625t-2.059326171875,0.384521484375q-1.4697265625,0-2.44384765625-0.521240234375t-1.572265625-1.4013671875t-0.863037109375-2.03369140625t-0.264892578125-2.418212890625z M129.0125,35.52734375l0.478515625,0.42724609375q0.341796875,0.3076171875,0.68359375,0.13671875t0.615234375-0.623779296875t0.504150390625-1.119384765625t0.41015625-1.3671875t0.264892578125-1.3671875t0.08544921875-1.11083984375l0-0.5810546875t-0.05126953125-0.615234375t-0.179443359375-0.487060546875t-0.401611328125-0.247802734375q-0.08544921875-0.01708984375-0.15380859375-0.01708984375q-0.5810546875,0-0.9912109375,0.73486328125q-0.4443359375,0.8203125-0.7177734375,1.990966796875t-0.39306640625,2.401123046875t-0.15380859375,1.845703125z M140.23488769531,42.1923828125q0-0.49560546875,0.042724609375-1.04248046875t0.076904296875-1.025390625l0.1025390625-2.5634765625q0.1708984375-3.076171875,0.418701171875-6.0498046875t0.418701171875-6.015625q0.1025390625-1.6748046875,0.15380859375-3.289794921875t0.15380859375-3.289794921875q-0.068359375-0.13671875-0.068359375-0.18798828125q0-0.2392578125,0.179443359375-0.3759765625t0.418701171875-0.230712890625t0.504150390625-0.128173828125t0.401611328125-0.0341796875l0.39306640625,0q0.52978515625,0.068359375,0.76904296875,0.333251953125t0.3076171875,0.63232421875t0.0341796875,0.7861328125t-0.0341796875,0.777587890625q0,2.47802734375-0.11962890625,5.050048828125t-0.2734375,5.1611328125t-0.281982421875,5.17822265625t-0.128173828125,5.118408203125l0,1.1962890625q0,0.80322265625-0.452880859375,1.0595703125t-1.256103515625,0.25634765625q-0.70068359375,0-1.23046875-0.3076171875t-0.52978515625-1.00830078125z M147.73168945313,36.4501953125q0-0.97412109375,0.247802734375-2.008056640625t0.7861328125-1.86279296875t1.358642578125-1.35009765625t1.982421875-0.521240234375q0.87158203125,0,1.837158203125,0.299072265625t1.768798828125,0.8544921875t1.307373046875,1.358642578125t0.504150390625,1.79443359375q0,1.1962890625-0.435791015625,2.27294921875t-1.221923828125,1.922607421875t-1.837158203125,1.3330078125t-2.281494140625,0.487060546875q-1.00830078125,0-1.76025390625-0.367431640625t-1.256103515625-0.982666015625t-0.751953125-1.45263671875t-0.247802734375-1.77734375z M150.24389648438,36.416015625q0,0.3076171875,0.093994140625,0.90576171875t0.281982421875,1.170654296875t0.487060546875,0.9912109375t0.726318359375,0.384521484375q0.90576171875-0.1025390625,1.495361328125-0.589599609375t0.95703125-1.187744140625t0.5126953125-1.52099609375t0.145263671875-1.55517578125q0-0.93994140625-0.367431640625-1.572265625t-1.204833984375-1.025390625q0,0.0341796875,0.0341796875,0.0341796875t0.0341796875-0.0341796875l-0.42724609375-0.1025390625q-0.1708984375-0.068359375-0.418701171875-0.15380859375t-0.487060546875-0.3759765625q-0.66650390625,0.2392578125-1.033935546875,0.615234375t-0.555419921875,0.914306640625t-0.230712890625,1.290283203125t-0.042724609375,1.8115234375z M160.68015136719,29.93896484375q0-0.80322265625,0.316162109375-1.187744140625t1.153564453125-0.384521484375q0.49560546875,0,0.931396484375,0.205078125t0.435791015625,0.87158203125q0.068359375,0.97412109375,0.068359375,2.042236328125t0.18798828125,2.025146484375q0.42724609375-0.70068359375,0.965576171875-1.4013671875t1.187744140625-1.24755859375t1.41845703125-0.880126953125t1.6748046875-0.333251953125q1.23046875,0,2.0849609375,0.5126953125t1.409912109375,1.3330078125t0.80322265625,1.854248046875t0.247802734375,2.076416015625q0,1.6064453125-0.487060546875,2.623291015625t-1.290283203125,1.597900390625t-1.820068359375,0.7861328125t-2.042236328125,0.205078125q-0.90576171875,0-1.69189453125-0.350341796875t-1.09375-1.324462890625q0-0.2734375,0.401611328125-0.341796875t0.572509765625-0.068359375q0.56396484375,0,0.83740234375,0.3076171875q0.205078125,0.2392578125,0.452880859375,0.487060546875t0.521240234375,0.247802734375q0.52978515625,0,1.11083984375-0.299072265625t1.068115234375-0.7861328125t0.8203125-1.153564453125t0.333251953125-1.3671875q0-0.59814453125-0.1025390625-1.48681640625t-0.350341796875-1.708984375t-0.68359375-1.41845703125t-1.102294921875-0.59814453125q-1.00830078125,0-1.820068359375,0.9228515625t-1.35009765625,2.2216796875t-0.83740234375,2.7001953125t-0.299072265625,2.34130859375t0.11962890625,2.37548828125t0.247802734375,2.982177734375t0.247802734375,2.982177734375t0.11962890625,2.37548828125q0,0.2392578125-0.196533203125,0.384521484375t-0.469970703125,0.230712890625t-0.555419921875,0.1025390625t-0.418701171875,0.01708984375q-0.46142578125,0-0.965576171875-0.1025390625t-0.692138671875-0.63232421875q-0.2392578125-0.83740234375-0.4443359375-2.384033203125t-0.367431640625-3.41796875t-0.281982421875-3.9306640625t-0.205078125-3.973388671875t-0.128173828125-3.50341796875t-0.042724609375-2.529296875z M177.063671875,31.71630859375q0-0.70068359375,0.41015625-1.204833984375t0.999755859375-0.8203125t1.290283203125-0.469970703125t1.298828125-0.15380859375q0.46142578125,0,1.23046875,0.13671875t1.50390625,0.41015625t1.273193359375,0.7177734375t0.538330078125,1.04248046875q0,0.2734375-0.205078125,0.487060546875t-0.42724609375,0.213623046875q-0.46142578125,0-0.83740234375-0.299072265625t-0.777587890625-0.63232421875t-0.880126953125-0.63232421875t-1.07666015625-0.299072265625t-1.085205078125,0.384521484375t-0.487060546875,1.016845703125q0,1.04248046875,0.73486328125,2.042236328125t1.614990234375,2.10205078125t1.614990234375,2.315673828125t0.73486328125,2.68310546875q0,0.63232421875-0.264892578125,1.068115234375t-0.70068359375,0.709228515625t-0.982666015625,0.418701171875t-1.0595703125,0.145263671875q-0.56396484375,0-1.31591796875-0.264892578125t-1.41845703125-0.70068359375t-1.119384765625-1.016845703125t-0.452880859375-1.21337890625q0-0.3076171875,0.435791015625-0.39306640625t0.640869140625-0.08544921875q0.1025390625,0,0.316162109375,0.068359375t0.418701171875,0.15380859375t0.367431640625,0.18798828125t0.128173828125,0.22216796875q0.1708984375,0.205078125,0.521240234375,0.606689453125t0.70068359375,0.6494140625t0.615234375,0.179443359375t0.264892578125-0.76904296875q0-1.3330078125-0.7177734375-2.452392578125t-1.563720703125-2.1875t-1.563720703125-2.119140625t-0.7177734375-2.247314453125z M195.76577148438,20.830078125q0-0.80322265625,0.042724609375-1.58935546875t0.145263671875-1.55517578125q0.068359375-0.39306640625,0.606689453125-0.56396484375t0.897216796875-0.1708984375l0.41015625,0.0341796875q0.49560546875,0.068359375,0.999755859375-0.068359375t0.999755859375-0.13671875q1.162109375,0,2.59765625,0.25634765625t2.691650390625,0.87158203125t2.110595703125,1.614990234375t0.8544921875,2.469482421875t-0.888671875,2.742919921875t-2.23876953125,2.23876953125t-2.9052734375,1.512451171875t-2.85400390625,0.546875q0.13671875,3.29833984375,0.384521484375,6.54541015625t0.845947265625,6.494140625l0.0341796875,0.22216796875q0,0.2392578125-0.213623046875,0.39306640625t-0.504150390625,0.247802734375t-0.589599609375,0.128173828125t-0.487060546875,0.0341796875q-0.42724609375,0-1.033935546875-0.162353515625t-0.743408203125-0.640869140625q-0.39306640625-1.50390625-0.615234375-3.306884765625t-0.32470703125-3.768310546875t-0.145263671875-3.956298828125t-0.042724609375-3.887939453125l0-3.84521484375q0-0.63232421875-0.01708984375-1.31591796875t-0.01708984375-1.38427734375z M198.99575195313,18.0615234375q0,2.34130859375,0.05126953125,4.674072265625t0.11962890625,4.674072265625q1.00830078125-0.205078125,2.059326171875-0.726318359375t1.89697265625-1.239013671875t1.3671875-1.632080078125t0.521240234375-1.922607421875q0-0.90576171875-0.452880859375-1.62353515625t-1.170654296875-1.23046875q-0.70068359375-0.49560546875-1.58935546875-0.76904296875q-0.7861328125-0.2392578125-1.5380859375-0.2392578125l-0.18798828125,0z M211.61950683594,31.34033203125q0-0.70068359375,0.247802734375-1.17919921875t1.051025390625-0.478515625q0.3076171875,0,0.76904296875,0.093994140625t0.52978515625,0.469970703125q0.1708984375,1.00830078125,0.18798828125,2.1875t0.11962890625,2.2216796875q0.39306640625-0.76904296875,1.00830078125-1.65771484375t1.4013671875-1.640625t1.708984375-1.24755859375t1.8798828125-0.49560546875q0.068359375,0,0.25634765625,0.05126953125t0.350341796875,0.145263671875t0.196533203125,0.213623046875t-0.18798828125,0.22216796875q-0.068359375,0.205078125-0.29052734375,0.247802734375t-0.39306640625,0.042724609375q-0.1025390625,0-0.32470703125-0.08544921875q-1.2646484375,0.66650390625-2.1533203125,1.8115234375t-1.45263671875,2.537841796875t-0.8203125,2.939453125t-0.25634765625,3.016357421875q0,0.73486328125-0.333251953125,0.888671875t-1.068115234375,0.15380859375q-0.39306640625,0-0.828857421875-0.08544921875t-0.606689453125-0.546875q-0.3076171875-0.97412109375-0.504150390625-2.23876953125t-0.299072265625-2.606201171875t-0.145263671875-2.640380859375t-0.042724609375-2.34130859375z M223.42294921875,36.4501953125q0-0.97412109375,0.247802734375-2.008056640625t0.7861328125-1.86279296875t1.358642578125-1.35009765625t1.982421875-0.521240234375q0.87158203125,0,1.837158203125,0.299072265625t1.768798828125,0.8544921875t1.307373046875,1.358642578125t0.504150390625,1.79443359375q0,1.1962890625-0.435791015625,2.27294921875t-1.221923828125,1.922607421875t-1.837158203125,1.3330078125t-2.281494140625,0.487060546875q-1.00830078125,0-1.76025390625-0.367431640625t-1.256103515625-0.982666015625t-0.751953125-1.45263671875t-0.247802734375-1.77734375z M225.93515625,36.416015625q0,0.3076171875,0.093994140625,0.90576171875t0.281982421875,1.170654296875t0.487060546875,0.9912109375t0.726318359375,0.384521484375q0.90576171875-0.1025390625,1.495361328125-0.589599609375t0.95703125-1.187744140625t0.5126953125-1.52099609375t0.145263671875-1.55517578125q0-0.93994140625-0.367431640625-1.572265625t-1.204833984375-1.025390625q0,0.0341796875,0.0341796875,0.0341796875t0.0341796875-0.0341796875l-0.42724609375-0.1025390625q-0.1708984375-0.068359375-0.418701171875-0.15380859375t-0.487060546875-0.3759765625q-0.66650390625,0.2392578125-1.033935546875,0.615234375t-0.555419921875,0.914306640625t-0.230712890625,1.290283203125t-0.042724609375,1.8115234375z"/><path fill="#" d=""/></svg>
